<svg id="Layer_1" data-name="Layer 1" xmlns="http://www.w3.org/2000/svg" viewBox="0 0 277.49 79.58"><defs><style>.cls-1{fill:#c4ab6e;}.cls-2,.cls-3{fill:none;stroke:#c4ab6e;}.cls-2{stroke-miterlimit:10;stroke-width:2.33px;}.cls-3{stroke-miterlimit:1;stroke-width:1.06px;}.cls-4{fill:#fff;}</style></defs><path class="cls-1" d="M11.76,150.18,17.7,153c-3.53,4.33-2,14,4.73,14,3.53,0,6.3-3.58,6.3-7.5,0-9.12-15.31-10.48-15.31-20.35,0-7.6,7-10.52,11.48-10.52,6.8,0,11.23,5.34,11.23,8l-3.32,5.29-.56-.2c1.16-5.49-.65-12.39-6.44-12.39-3.13,0-6.55,3.12-6.55,8.26,0,8,15.41,9.11,15.41,20.5,0,6.74-6.6,9.81-11.58,9.81C15.48,167.85,9.44,159.9,11.76,150.18Z" transform="translate(-11.26 -105.71)"/><path class="cls-1" d="M37.89,140.41h9.82c-1.31.15-2.22,1.56-2.22,3.27v15.87c0,3.22,2.27,5.94,5.29,5.94,2.47,0,5.39-2,5.79-7V143.68c0-1.71-.91-3.12-2.21-3.27h9.81c-1.3.15-2.21,1.56-2.21,3.27v19.64c0,1.76.91,3.12,2.21,3.33H59c-1.66,0-2.47-.61-2.47-2.47v-2.87a8,8,0,0,1-7.85,6.09c-5,0-8.61-3.22-8.61-8V143.68C40.11,142,39.2,140.56,37.89,140.41Z" transform="translate(-11.26 -105.71)"/><path class="cls-1" d="M68.66,163.32V143.68c0-1.71-.91-3.12-2.22-3.27H74v5.34a8,8,0,0,1,7.86-6.09c5,0,8.61,3.22,8.61,8v15.71c0,1.76.91,3.12,2.21,3.33H82.91c1.3-.21,2.21-1.57,2.21-3.33V147.46c0-3.17-2.26-5.94-5.29-5.94-2.46,0-5.38,2-5.79,7v14.8c0,1.76.91,3.12,2.22,3.33H66.44C67.75,166.44,68.66,165.08,68.66,163.32Z" transform="translate(-11.26 -105.71)"/><path class="cls-1" d="M96.15,155.11l3.62,2.22c-2.36,3.27-1.71,9.42,3.38,9.42,3.07,0,5.64-1.77,5.64-4.74,0-6.39-12.74-7.5-12.74-15.51,0-5.08,5.08-6.84,9-6.84,5.29,0,8.66,3.77,8.66,5.64A14.36,14.36,0,0,0,111.3,149l-.4-.15c.86-3.83-1.16-8.66-5.79-8.66-2.32,0-4.93,1.36-4.93,4.53,0,5.54,13,6.9,13,15.26,0,5.29-6.2,7.4-9.67,7.4-5.29,0-8.56-3.17-8.56-8.26A7.2,7.2,0,0,1,96.15,155.11Z" transform="translate(-11.26 -105.71)"/><path class="cls-1" d="M127.87,139.66c6,0,9.52,3.52,9.52,6.44,0,2.47-2,4-7.45,4.68s-8.51,5.39-6.5,9.77c1.86,3.38,4.63,5.54,7.35,5.54,3.38,0,5.14-3.12,5.89-6h.81c-1.21,5.19-4.23,7.3-8.81,7.3-7.51,0-12.69-6-12.69-13.9C116,145,121.32,139.66,127.87,139.66Zm-6,17.22c.05.15.1.35.15.5,0-3.22,2.77-6.14,6.7-7.1,4.08-1,5.23-2.92,5.23-5a4.94,4.94,0,0,0-5.28-4.94C122.89,140.31,119.31,149.22,121.88,156.88Z" transform="translate(-11.26 -105.71)"/><path class="cls-1" d="M139.3,140.41c3.78,0,8-3.62,8.56-7.2v7.2h3v.5h-3V160.1c0,4.18,1.31,6,4.23,6.55h-5.54c-3.52,0-4.08-2.77-4.08-6.1V140.91H139.3Z" transform="translate(-11.26 -105.71)"/><path class="cls-1" d="M180.54,129.69c8.51,0,15.46,8.3,15.46,18.48s-6.95,18.48-15.46,18.48H167.45c1.46-.21,2.47-1.77,2.47-3.73V133.41c0-2-1-3.47-2.47-3.72Zm-4.48,28c0,5.89,3.52,7.86,6.44,7.86a8.18,8.18,0,0,0,1.11-.1c4.89-.81,7.45-9.12,5.74-18.68-1.56-8.82-5.94-16.22-10.22-16.22-2.62,0-3.07,2.32-3.07,4.53Z" transform="translate(-11.26 -105.71)"/><path class="cls-1" d="M212,139.66c6,0,9.52,3.52,9.52,6.44,0,2.47-2,4-7.46,4.68s-8.51,5.39-6.49,9.77c1.86,3.38,4.63,5.54,7.35,5.54,3.37,0,5.14-3.12,5.89-6h.81c-1.21,5.19-4.23,7.3-8.82,7.3-7.5,0-12.68-6-12.68-13.9C200.08,145,205.41,139.66,212,139.66Zm-6,17.22c.05.15.1.35.15.5,0-3.22,2.77-6.14,6.7-7.1s5.23-2.92,5.23-5a4.94,4.94,0,0,0-5.29-4.94C207,140.31,203.4,149.22,206,156.88Z" transform="translate(-11.26 -105.71)"/><path class="cls-1" d="M235.27,139.66c4.18,0,8.36,2.16,8.91,7.45l-4.68,1.26a4.31,4.31,0,0,0,.56-2.47c-.41-3.88-2.47-5.59-4.74-5.59a5.45,5.45,0,0,0-1.91.4c-3.12,1.31-5.19,6.85-4,13.75s5.34,11.63,9.47,11.63c3.32,0,5.13-3.07,5.89-6h.8c-1.2,5.19-4.23,7.3-8.81,7.3-7.5,0-12.69-6-12.69-13.9C224.09,145.14,229.23,139.66,235.27,139.66Z" transform="translate(-11.26 -105.71)"/><path class="cls-1" d="M258.89,139.66c6.24,0,11.28,6.19,11.28,13.84s-5,13.9-11.28,13.9-11.28-6.24-11.28-13.9S252.64,139.66,258.89,139.66Zm-5.94,15c1.25,6.7,4.73,11.78,7.85,11.78a2.05,2.05,0,0,0,.55-.05c3.28-.65,4.84-6.89,3.48-14-1.31-6.75-4.73-11.84-7.91-11.84a1.7,1.7,0,0,0-.5.05C253.15,141.27,251.59,147.56,253,154.66Z" transform="translate(-11.26 -105.71)"/><path class="cls-1" d="M286.13,139.66a4.28,4.28,0,0,1,2.62.75v5.19a3.86,3.86,0,0,0-3.68-2.57c-2.37,0-4.78,2-4.78,7.05v13.24c0,1.76.9,3.12,2.21,3.33h-9.82c1.31-.21,2.22-1.57,2.22-3.33V143.68c0-1.71-.91-3.12-2.22-3.27h7.61v4.89C281.45,141.22,284.11,139.66,286.13,139.66Z" transform="translate(-11.26 -105.71)"/><polyline class="cls-2" points="44.54 1.16 58.1 1.16 58.1 30.28 28.99 30.28 28.99 1.16 44.07 1.16"/><path class="cls-1" d="M50.06,123.27a4.75,4.75,0,0,1,9.49,0Z" transform="translate(-11.26 -105.71)"/><path class="cls-1" d="M57.09,123.74a2.29,2.29,0,0,1-4.58,0Z" transform="translate(-11.26 -105.71)"/><rect class="cls-1" x="42.2" y="8.5" width="2.7" height="6.55" rx="1.35"/><line class="cls-3" x1="43.55" y1="11.14" x2="43.55" y2="1.17"/><path class="cls-4" d="M49.81,179.68a2.84,2.84,0,0,1,2.49-3.09c.86-.22,1.53-.39,1.53-1.22v-1.51a.81.81,0,0,0-.57-.87h2v8.81a.79.79,0,0,0,.58.87h-2v-.78a1.28,1.28,0,0,1-1.22,1A3.12,3.12,0,0,1,49.81,179.68Zm1.45.25c.29,1.46,1,2.65,1.64,2.65s.93-1,.93-1.49V176c-.37.51-1.13.59-1.74.82C51.21,177.17,51,178.37,51.26,179.93Z" transform="translate(-11.26 -105.71)"/><path class="cls-4" d="M63.44,175.6a1.09,1.09,0,0,1,.68.2v1.36a1,1,0,0,0-1-.67c-.62,0-1.25.51-1.25,1.84v3.47a.8.8,0,0,0,.58.87H59.92a.8.8,0,0,0,.58-.87v-5.14a.79.79,0,0,0-.58-.86h2v1.28C62.21,176,62.91,175.6,63.44,175.6Z" transform="translate(-11.26 -105.71)"/><path class="cls-4" d="M71.05,175.6c1.58,0,2.49.93,2.49,1.69s-.51,1-2,1.23a1.86,1.86,0,0,0-1.7,2.55,2.45,2.45,0,0,0,1.93,1.46c.88,0,1.34-.82,1.54-1.57h.21a2.17,2.17,0,0,1-2.31,1.91,3.38,3.38,0,0,1-3.32-3.64C67.94,177,69.34,175.6,71.05,175.6Zm-1.57,4.51a.93.93,0,0,1,0,.13,2.13,2.13,0,0,1,1.76-1.86c1.06-.26,1.37-.76,1.37-1.31a1.29,1.29,0,0,0-1.39-1.29C69.75,175.78,68.81,178.11,69.48,180.11Z" transform="translate(-11.26 -105.71)"/><path class="cls-4" d="M77.39,180.73c0-1.17.9-1.79,2.1-2.27s1.92-1,1.92-1.75c0-.5-.26-1-.78-1a1,1,0,0,0-.92,1.09c0,.3.11.87.44,1h0c-.62,0-1.24-.34-1.24-1s.55-1.31,1.83-1.31a1.91,1.91,0,0,1,2.12,1.88v4.32a.8.8,0,0,0,.58.87H82.06c-.44,0-.65-.16-.65-.65v-.22a2.06,2.06,0,0,1-1.88,1.07A2.1,2.1,0,0,1,77.39,180.73Zm2.69,1.77a1.45,1.45,0,0,0,1.33-1.33V177.3c-.28.62-.91.9-1.52,1.27a2.28,2.28,0,0,0-1.06,2.15C78.83,181.63,79.31,182.5,80.08,182.5Z" transform="translate(-11.26 -105.71)"/><path class="cls-4" d="M88,181.8v-5.14a.79.79,0,0,0-.58-.86h2v1.36c.24-1.1.89-1.56,1.55-1.56a1.65,1.65,0,0,1,1.66,1.62c.23-1.09.93-1.62,1.57-1.62.83,0,1.7.54,1.7,2.09v4.11a.79.79,0,0,0,.58.87H93.9c.35,0,.57-.41.57-.87v-4.15c0-.83-.14-1.56-.71-1.56s-1,.53-1.11,1.83v3.88a.8.8,0,0,0,.58.87H90.66a.8.8,0,0,0,.57-.87v-4.15c0-.83-.13-1.56-.71-1.56s-1,.53-1.11,1.83v3.88a.8.8,0,0,0,.58.87H87.42A.8.8,0,0,0,88,181.8Z" transform="translate(-11.26 -105.71)"/><path class="cls-4" d="M100.65,179.65l.95.58c-.62.86-.45,2.47.88,2.47a1.33,1.33,0,0,0,1.48-1.24c0-1.68-3.34-2-3.34-4.06,0-1.34,1.33-1.8,2.35-1.8a2.2,2.2,0,0,1,2.26,1.48,3.87,3.87,0,0,0-.62,1l-.1,0a1.74,1.74,0,0,0-1.52-2.27,1.19,1.19,0,0,0-1.29,1.19c0,1.44,3.42,1.8,3.42,4,0,1.38-1.63,1.94-2.54,1.94a2,2,0,0,1-2.24-2.16A1.88,1.88,0,0,1,100.65,179.65Z" transform="translate(-11.26 -105.71)"/><path class="cls-4" d="M113.06,181.8v-5.14a.79.79,0,0,0-.58-.86h2v1.36c.24-1.1.9-1.56,1.56-1.56a1.66,1.66,0,0,1,1.66,1.62c.22-1.09.92-1.62,1.57-1.62.83,0,1.7.54,1.7,2.09v4.11c0,.46.22.82.58.87H119c.34,0,.56-.41.56-.87v-4.15c0-.83-.14-1.56-.71-1.56s-1,.53-1.11,1.83v3.88a.8.8,0,0,0,.58.87h-2.57c.35,0,.57-.41.57-.87v-4.15c0-.83-.13-1.56-.71-1.56s-1,.53-1.11,1.83v3.88a.8.8,0,0,0,.58.87h-2.57A.8.8,0,0,0,113.06,181.8Z" transform="translate(-11.26 -105.71)"/><path class="cls-4" d="M125.41,180.73c0-1.17.89-1.79,2.09-2.27s1.93-1,1.93-1.75c0-.5-.27-1-.78-1a1,1,0,0,0-.92,1.09c0,.3.1.87.43,1h0c-.62,0-1.24-.34-1.24-1s.56-1.31,1.83-1.31a1.91,1.91,0,0,1,2.13,1.88v4.32a.79.79,0,0,0,.58.87h-1.35c-.43,0-.64-.16-.64-.65v-.22a2.16,2.16,0,0,1-4-1.07Zm2.69,1.77a1.47,1.47,0,0,0,1.33-1.33V177.3c-.28.62-.91.9-1.52,1.27a2.29,2.29,0,0,0-1.07,2.15C126.84,181.63,127.33,182.5,128.1,182.5Z" transform="translate(-11.26 -105.71)"/><path class="cls-4" d="M135.3,179.68a2.84,2.84,0,0,1,2.49-3.09c.86-.22,1.53-.39,1.53-1.22v-1.51a.81.81,0,0,0-.56-.87h2v8.81a.79.79,0,0,0,.58.87h-2v-.78a1.28,1.28,0,0,1-1.22,1A3.12,3.12,0,0,1,135.3,179.68Zm1.45.25c.29,1.46.95,2.65,1.64,2.65s.93-1,.93-1.49V176c-.37.51-1.13.59-1.74.82C136.7,177.17,136.45,178.37,136.75,179.93Z" transform="translate(-11.26 -105.71)"/><path class="cls-4" d="M148.39,175.6c1.58,0,2.49.93,2.49,1.69s-.51,1-1.95,1.23a1.86,1.86,0,0,0-1.7,2.55,2.44,2.44,0,0,0,1.92,1.46c.89,0,1.35-.82,1.54-1.57h.22a2.17,2.17,0,0,1-2.31,1.91,3.38,3.38,0,0,1-3.32-3.64C145.28,177,146.67,175.6,148.39,175.6Zm-1.57,4.51,0,.13a2.11,2.11,0,0,1,1.75-1.86c1.07-.26,1.37-.76,1.37-1.31a1.29,1.29,0,0,0-1.38-1.29C147.08,175.78,146.15,178.11,146.82,180.11Z" transform="translate(-11.26 -105.71)"/><path class="cls-4" d="M158.15,175.8a2,2,0,0,0,2-1.17.63.63,0,0,1-.45.18.69.69,0,0,1,0-1.37.72.72,0,0,1,.7.77A1.66,1.66,0,0,1,159,175.8h1.69a.79.79,0,0,0-.58.86v5.14a.8.8,0,0,0,.58.87h-2.57a.8.8,0,0,0,.58-.87v-5.14A.79.79,0,0,0,158.15,175.8Z" transform="translate(-11.26 -105.71)"/><path class="cls-4" d="M165.32,181.8v-5.14a.79.79,0,0,0-.58-.86h2v1.4a2.2,2.2,0,0,1,4.31.49v4.11a.8.8,0,0,0,.58.87h-2.57a.8.8,0,0,0,.58-.87v-4.15a1.48,1.48,0,0,0-1.38-1.56c-.65,0-1.42.53-1.52,1.83v3.88a.8.8,0,0,0,.58.87h-2.57A.8.8,0,0,0,165.32,181.8Z" transform="translate(-11.26 -105.71)"/><path class="cls-4" d="M175.83,175.8a2.51,2.51,0,0,0,2.24-1.88v1.88h.8v.13h-.8v5c0,1.09.35,1.57,1.11,1.71h-1.45c-.92,0-1.07-.72-1.07-1.6v-5.14h-.83Z" transform="translate(-11.26 -105.71)"/><path class="cls-4" d="M186,175.6c1.64,0,2.95,1.62,2.95,3.63s-1.31,3.64-2.95,3.64-3-1.64-3-3.64S184.39,175.6,186,175.6Zm-1.56,3.93c.33,1.76,1.24,3.09,2.06,3.09a.41.41,0,0,0,.15,0c.85-.17,1.26-1.8.91-3.66s-1.24-3.1-2.07-3.1h-.13C184.52,176,184.11,177.67,184.46,179.53Z" transform="translate(-11.26 -105.71)"/><path class="cls-4" d="M199.74,175.6a1.09,1.09,0,0,1,.68.2v1.36a1,1,0,0,0-1-.67c-.62,0-1.25.51-1.25,1.84v3.47a.8.8,0,0,0,.58.87h-2.57a.8.8,0,0,0,.58-.87v-5.14a.79.79,0,0,0-.58-.86h2v1.28C198.51,176,199.21,175.6,199.74,175.6Z" transform="translate(-11.26 -105.71)"/><path class="cls-4" d="M207.35,175.6c1.59,0,2.5.93,2.5,1.69s-.52,1-2,1.23a1.86,1.86,0,0,0-1.7,2.55,2.45,2.45,0,0,0,1.93,1.46c.88,0,1.34-.82,1.54-1.57h.21a2.17,2.17,0,0,1-2.31,1.91,3.38,3.38,0,0,1-3.32-3.64C204.24,177,205.64,175.6,207.35,175.6Zm-1.56,4.51s0,.1,0,.13a2.13,2.13,0,0,1,1.76-1.86c1.07-.26,1.37-.76,1.37-1.31a1.29,1.29,0,0,0-1.39-1.29C206.05,175.78,205.11,178.11,205.79,180.11Z" transform="translate(-11.26 -105.71)"/><path class="cls-4" d="M213.69,180.73c0-1.17.9-1.79,2.1-2.27s1.92-1,1.92-1.75c0-.5-.26-1-.78-1a1,1,0,0,0-.92,1.09c0,.3.11.87.44,1h0c-.62,0-1.24-.34-1.24-1s.55-1.31,1.83-1.31a1.91,1.91,0,0,1,2.12,1.88v4.32a.8.8,0,0,0,.58.87h-1.34c-.44,0-.65-.16-.65-.65v-.22a2.06,2.06,0,0,1-1.88,1.07A2.1,2.1,0,0,1,213.69,180.73Zm2.69,1.77a1.45,1.45,0,0,0,1.33-1.33V177.3c-.28.62-.91.9-1.51,1.27a2.27,2.27,0,0,0-1.07,2.15C215.13,181.63,215.62,182.5,216.38,182.5Z" transform="translate(-11.26 -105.71)"/><path class="cls-4" d="M225.71,173.05v8.75a.8.8,0,0,0,.58.87h-2.57a.8.8,0,0,0,.58-.87v-7.9a.79.79,0,0,0-.58-.85Z" transform="translate(-11.26 -105.71)"/><path class="cls-4" d="M230.31,175.8a2,2,0,0,0,2-1.17.63.63,0,0,1-.45.18.69.69,0,0,1,0-1.37.72.72,0,0,1,.7.77,1.67,1.67,0,0,1-1.36,1.59h1.69c-.35,0-.58.41-.58.86v5.14a.79.79,0,0,0,.58.87h-2.57a.8.8,0,0,0,.58-.87v-5.14A.79.79,0,0,0,230.31,175.8Z" transform="translate(-11.26 -105.71)"/><path class="cls-4" d="M237.09,175.8a2.51,2.51,0,0,0,2.24-1.88v1.88h.79v.13h-.79v5c0,1.09.35,1.57,1.11,1.71H239c-.92,0-1.07-.72-1.07-1.6v-5.14h-.83Z" transform="translate(-11.26 -105.71)"/><path class="cls-4" d="M244.33,175.8h2.57c-.35,0-.46.38-.33.86l1.28,4.59c.42-1.39,1.68-2.64,1.68-3.84a2.17,2.17,0,0,0-.74-1.62h1a2.28,2.28,0,0,1,.16.93c0,1.94-1.61,3.29-2,4.78,1.71.39,2.21,1.29,2.21,2,0,1.09-.93,1.83-2.82,1.83a3.35,3.35,0,0,1-3-1.68,4.75,4.75,0,0,0,1-1.2l.12.06c-.11.29-.19,2.64,1.59,2.64a1.53,1.53,0,0,0,1.65-1.58c0-1.19-1.39-2.13-2.4-2.48l-1.23-4.39A1.05,1.05,0,0,0,244.33,175.8Z" transform="translate(-11.26 -105.71)"/></svg>